<svg xmlns="http://www.w3.org/2000/svg" version="1.0" width="130" height="130" preserveAspectRatio="xMidYMid meet" style=""><rect id="backgroundrect" width="100%" height="100%" x="0" y="0" fill="none" stroke="none"/>


<g class="currentLayer" style=""><title>Layer 1</title><path fill="#525fe1" fill-opacity="1" stroke="none" stroke-opacity="1" stroke-width="1" stroke-dasharray="none" stroke-linejoin="miter" stroke-linecap="butt" stroke-dashoffset="" fill-rule="nonzero" opacity="1" marker-start="" marker-mid="" marker-end="" d="M4.495048522949219,14.47524749170509 C4.495048522949219,7.69646004187447 10.191508564823689,2 16.97029601465431,2 L113.0297017007835,2 C119.80848915061412,2 125.5049491924886,7.69646004187447 125.5049491924886,14.47524749170509 L125.5049491924886,115.52475217451632 C125.5049491924886,122.30353962434694 119.80848915061412,127.99999966622141 113.0297017007835,127.99999966622141 L16.97029601465431,127.99999966622141 C10.191508564823689,127.99999966622141 4.495048522949219,122.30353962434694 4.495048522949219,115.52475217451632 L4.495048522949219,14.47524749170509 z" id="svg_4" class=""/><g transform="translate(0,130) scale(0.10000000149011612,-0.10000000149011612) " fill="#ffffff" stroke="none" id="svg_1" class="" fill-opacity="1">
<path d="M703 1112 c-16 -10 -165 -565 -157 -585 7 -18 97 -49 118 -41 16 6 207 559 200 578 -4 10 -55 30 -134 51 -8 3 -20 1 -27 -3z" id="svg_2" fill="#ffffff" fill-opacity="1"/>
<path d="M505 452 c-6 -4 -19 -35 -30 -70 -16 -54 -16 -65 -4 -76 20 -17 124 -47 141 -41 18 7 52 123 43 146 -3 9 -33 23 -65 32 -67 19 -71 20 -85 9z" id="svg_3" fill="#ffffff" fill-opacity="1"/>
</g></g></svg>